<?xml version="1.0" encoding="UTF-8" standalone="no"?>
<!-- Created with Inkscape (http://www.inkscape.org/) -->

<svg
   width="113.36972mm"
   height="109.80208mm"
   viewBox="0 0 113.36972 109.80208"
   version="1.1"
   id="svg1"
   xml:space="preserve"
   xmlns:inkscape="http://www.inkscape.org/namespaces/inkscape"
   xmlns:sodipodi="http://sodipodi.sourceforge.net/DTD/sodipodi-0.dtd"
   xmlns="http://www.w3.org/2000/svg"
   xmlns:svg="http://www.w3.org/2000/svg"><sodipodi:namedview
     id="namedview1"
     pagecolor="#505050"
     bordercolor="#eeeeee"
     borderopacity="1"
     inkscape:showpageshadow="0"
     inkscape:pageopacity="0"
     inkscape:pagecheckerboard="0"
     inkscape:deskcolor="#d1d1d1"
     inkscape:document-units="mm" /><defs
     id="defs1" /><g
     inkscape:label="Vrstva 1"
     inkscape:groupmode="layer"
     id="layer1"
     transform="translate(95.848162,-62.598395)"><path
       style="fill:#ffffff;fill-opacity:1"
       d="m -78.528368,171.74981 c -0.655521,-0.65552 -0.655521,-0.65552 -0.585716,-27.93767 0.06981,-27.28216 0.06981,-27.28216 2.318764,-29.4456 33.78865,-32.503884 36.82961,-35.363974 37.60031,-35.363974 0.67271,0 3.34583,2.49083 19.6231,18.284947 C -9.20755,107.34424 -0.40019,115.91861 0,116.34169 c 0.7276,0.76922 0.7276,0.76922 0.7276,27.71686 0,26.86158 -0.002,26.94987 -0.54837,27.64478 -0.54837,0.69714 -0.54837,0.69714 -14.02292,0.69714 -13.47454,0 -13.47454,0 -13.47454,-16.15697 0,-16.16642 -0.0394,-16.93288 -0.89951,-17.5072 -0.43857,-0.29284 -21.65219,-0.23874 -22.11925,0.0564 -0.34356,0.21711 -0.41464,2.48236 -0.52916,16.86313 -0.13229,16.61234 -0.13229,16.61234 -13.56949,16.68092 -13.437206,0.0686 -13.437206,0.0686 -14.092728,-0.58695 z m -15.355018,-52.11292 c -1.319809,-0.57464 -1.961529,-1.60855 -1.964631,-3.16533 -0.0027,-1.35338 -0.0027,-1.35338 3.376776,-4.66067 1.85871,-1.81901 6.891928,-6.64104 11.184928,-10.71562 4.293003,-4.074587 14.690563,-13.956777 23.105703,-21.960414 8.41513,-8.003647 15.83921,-14.998569 16.49794,-15.544272 1.00579,-0.833206 1.39524,-0.992187 2.43053,-0.992187 0.71913,0 1.50542,0.185354 1.88701,0.444834 0.3598,0.244658 2.91637,2.606022 5.68127,5.247475 2.7649,2.641453 9.96818,9.48679 16.00729,15.21187 33.26872,31.538694 32.50685,30.801204 32.97369,31.918514 1.05435,2.52341 -1.80997,5.34611 -4.34469,4.28157 -0.45985,-0.19313 -9.48611,-8.56646 -20.05837,-18.60739 -30.07193,-28.560642 -31.90929,-30.29479 -32.09785,-30.29479 -0.0976,0 -1.846,1.577578 -3.88532,3.505729 -4.17183,3.944417 -30.61185,29.057111 -40.717668,38.673601 -3.638021,3.46186 -6.997713,6.46054 -7.465982,6.66373 -1.044119,0.45306 -1.557804,0.45175 -2.610626,-0.007 z"
       id="path1" /></g></svg>
